<svg width="25" height="26" viewBox="0 0 25 26" fill="none" xmlns="http://www.w3.org/2000/svg">
<path d="M14.0183 23.5C13.8135 23.8539 13.5191 24.1477 13.1649 24.352C12.8106 24.5562 12.4089 24.6637 12 24.6637C11.5911 24.6637 11.1894 24.5562 10.8351 24.352C10.4809 24.1477 10.1865 23.8539 9.98167 23.5M19.1563 11.8334C19.8342 18.1042 22.5 20 22.5 20H1.5C1.5 20 5 17.5115 5 8.80004C5 6.82021 5.73733 4.92087 7.04983 3.52087C8.3635 2.12087 10.145 1.33337 12 1.33337C12.3932 1.33337 12.784 1.36837 13.1667 1.43837L19.1563 11.8334ZM20.1667 8.33337C21.0949 8.33337 21.9852 7.96462 22.6415 7.30825C23.2979 6.65187 23.6667 5.76163 23.6667 4.83337C23.6667 3.90512 23.2979 3.01488 22.6415 2.3585C21.9852 1.70212 21.0949 1.33337 20.1667 1.33337C19.2384 1.33337 18.3482 1.70212 17.6918 2.3585C17.0354 3.01488 16.6667 3.90512 16.6667 4.83337C16.6667 5.76163 17.0354 6.65187 17.6918 7.30825C18.3482 7.96462 19.2384 8.33337 20.1667 8.33337Z" stroke="#282828" stroke-width="1.5" stroke-linecap="round" stroke-linejoin="round"/>
</svg>
